<svg width="93" height="102" viewBox="0 0 93 102" fill="none" xmlns="http://www.w3.org/2000/svg">
    <path fill-rule="evenodd" clip-rule="evenodd"
        d="M67.7407 51C67.7407 57.6662 67.7192 60.5007 67.1218 62.7647C65.4185 69.2194 60.4058 74.2607 53.9879 75.9737C51.7368 76.5746 48.9184 76.5962 42.2901 76.5962H1.04245C0.466722 76.5962 0 77.0629 0 77.6387V79.1561C0 79.1595 0.00274703 79.1623 0.00613567 79.1623V79.1623C9.08737 92.926 24.6351 102 42.2901 102C52.5544 102 62.1064 98.933 70.0895 93.6605H70.2922V93.5259C70.4093 93.4477 70.5261 93.3691 70.6425 93.29C84.1314 84.1249 93 68.6041 93 51C93 22.8335 70.2964 0 42.2901 0C24.6351 0 9.08737 9.07396 0.00613624 22.8377V22.8377C0.00274728 22.8377 0 22.8405 0 22.8439V24.3613C0 24.9371 0.466722 25.4038 1.04245 25.4038H42.2901C48.9184 25.4038 51.7368 25.4254 53.9879 26.0263C60.4058 27.7393 65.4185 32.7806 67.1218 39.2353C67.7192 41.4993 67.7407 44.3338 67.7407 51ZM67.262 92.422C59.9806 96.8716 51.4329 99.434 42.2901 99.434C26.137 99.434 11.8413 91.4357 3.10495 79.1623L67.7407 79.1623V92.1256C67.5818 92.2253 67.4222 92.3241 67.262 92.422ZM70.2922 90.4094C74.3326 87.5003 77.907 83.9784 80.8812 79.9788C81.082 79.7088 81.28 79.4366 81.4753 79.1623H70.2922V90.4094ZM83.1818 76.5962C87.7874 69.1697 90.4486 60.3974 90.4486 51C90.4486 41.8049 87.9008 33.2083 83.4765 25.8852C83.3792 25.7241 83.2809 25.5636 83.1818 25.4038H70.2922V76.5962H83.1818ZM67.7407 33.904V25.4038H59.2889C62.8618 27.3554 65.8002 30.3107 67.7407 33.904ZM67.7407 68.096V76.5962H59.2889C62.8618 74.6446 65.8002 71.6893 67.7407 68.096ZM81.4753 22.8377C78.5828 18.7742 75.081 15.1793 71.1041 12.1882C70.8356 11.9862 70.565 11.787 70.2922 11.5906V22.8377H81.4753ZM67.7407 9.87439V22.8377H3.10495C11.8413 10.5643 26.137 2.56604 42.2901 2.56604C51.634 2.56604 60.3564 5.24236 67.7407 9.87439Z"
        fill="#99FFFF" />
</svg>